<?xml version="1.0" encoding="utf-8"?>
<!-- Generator: Adobe Illustrator 15.0.2, SVG Export Plug-In . SVG Version: 6.00 Build 0)  -->
<!DOCTYPE svg PUBLIC "-//W3C//DTD SVG 1.1//EN" "http://www.w3.org/Graphics/SVG/1.1/DTD/svg11.dtd">
<svg version="1.1" id="Layer_1" xmlns="http://www.w3.org/2000/svg" xmlns:xlink="http://www.w3.org/1999/xlink" x="0px" y="0px"
	 width="254.976px" height="222.101px" viewBox="0 0 254.976 222.101" enable-background="new 0 0 254.976 222.101"
	 xml:space="preserve">
<g>
	<g>
		<path d="M17.808,192.525c-1.765,0-3.199,1.434-3.199,3.194c0,1.763,1.435,3.195,3.199,3.195c1.763,0,3.193-1.433,3.193-3.195
			C21.002,193.958,19.571,192.525,17.808,192.525z"/>
	</g>
	<g>
		<path d="M38.25,183.21h-0.217l-0.197,0.096c-3.495,1.729-6.338,2.529-9.155,2.593c-0.093-1.189-0.108-3.48,0.953-4.966
			c0.526-0.736,1.251-1.168,2.212-1.325c0.436-0.069,0.88-0.139,1.323-0.207c4.936-0.761,10.528-1.626,11.978-6.36l-1.794-0.549
			c-1.104,3.61-5.864,4.346-10.47,5.058c-0.45,0.067-0.896,0.139-1.335,0.209c-1.464,0.236-2.624,0.939-3.442,2.092
			c-1.335,1.875-1.405,4.487-1.312,5.983c-2.51-0.232-5.204-1.042-8.693-2.602l-0.181-0.083h-0.202
			c-9.87,0-17.017,17.438-17.017,29.193c0,2.81,0.412,5.075,1.224,6.733c0.967,1.979,2.499,3.025,4.421,3.025
			c4.383,0,7.068-2.563,9.663-5.045c2.986-2.85,6.071-5.798,12.117-5.798c4.977,0,8.807,3.03,12.506,5.958
			c3.083,2.443,5.996,4.748,9.21,4.748c1.771,0,3.167-0.888,4.047-2.568c0.73-1.396,1.102-3.334,1.102-5.759
			C54.99,203.355,47.41,183.21,38.25,183.21z M17.808,200.79c-2.799,0-5.075-2.276-5.075-5.071s2.275-5.068,5.075-5.068
			c2.793,0,5.069,2.273,5.069,5.068C22.878,198.513,20.601,200.79,17.808,200.79z M37.906,188.379
			c1.086-0.688,2.616-0.342,3.299,0.731c0.344,0.536,0.455,1.177,0.318,1.798c-0.139,0.624-0.512,1.156-1.051,1.499
			c-0.384,0.244-0.827,0.373-1.279,0.373c-0.82,0-1.574-0.411-2.018-1.104C36.47,190.566,36.798,189.087,37.906,188.379z
			 M33.097,195.953c-0.707-1.113-0.38-2.593,0.729-3.298c1.082-0.69,2.615-0.346,3.297,0.73c0.344,0.538,0.457,1.178,0.318,1.802
			c-0.138,0.622-0.51,1.154-1.048,1.496c-0.386,0.244-0.827,0.374-1.28,0.374C34.292,197.056,33.539,196.643,33.097,195.953z
			 M39.535,201.654c-0.383,0.244-0.828,0.375-1.281,0.375c-0.823,0-1.577-0.416-2.018-1.107c-0.343-0.536-0.455-1.175-0.317-1.799
			c0.138-0.622,0.51-1.154,1.048-1.498c1.082-0.689,2.611-0.346,3.3,0.73C40.972,199.469,40.643,200.947,39.535,201.654z
			 M44.664,195.88c-0.139,0.622-0.512,1.153-1.051,1.498c-0.383,0.244-0.826,0.375-1.281,0.375c-0.82,0-1.573-0.414-2.016-1.106
			c-0.345-0.538-0.457-1.176-0.318-1.8c0.139-0.622,0.511-1.155,1.051-1.499c1.082-0.687,2.607-0.344,3.297,0.732
			C44.689,194.619,44.801,195.258,44.664,195.88z"/>
	</g>
</g>
<g>
	<path d="M254.678,15.307c-0.156-1.727-0.382-3.268-0.675-4.629c-0.334-1.526-1.062-2.813-2.181-3.859
		c-1.12-1.045-2.422-1.651-3.907-1.82c-4.645-0.523-11.663-0.784-21.058-0.784c-9.394,0-16.413,0.261-21.058,0.784
		c-1.485,0.169-2.782,0.775-3.892,1.82c-1.108,1.046-1.831,2.333-2.165,3.859c-0.313,1.361-0.549,2.902-0.706,4.629
		c-0.156,1.727-0.245,3.154-0.267,4.284c-0.021,1.129-0.031,2.698-0.031,4.708c0,2.008,0.011,3.577,0.031,4.707
		c0.021,1.129,0.11,2.56,0.267,4.288c0.157,1.725,0.382,3.268,0.675,4.628c0.335,1.528,1.062,2.814,2.181,3.86
		c1.119,1.047,2.422,1.653,3.907,1.82c4.645,0.522,11.664,0.784,21.058,0.784c9.395,0,16.412-0.262,21.058-0.784
		c1.485-0.167,2.781-0.773,3.891-1.82c1.109-1.046,1.831-2.332,2.166-3.86c0.313-1.36,0.548-2.903,0.706-4.628
		c0.156-1.73,0.246-3.159,0.266-4.288c0.021-1.13,0.032-2.699,0.032-4.707c0-2.01-0.011-3.578-0.032-4.708
		C254.924,18.461,254.834,17.033,254.678,15.307z M237.967,25.993L221.9,36.039c-0.294,0.209-0.648,0.313-1.066,0.313
		c-0.314,0-0.639-0.083-0.973-0.252c-0.69-0.376-1.036-0.961-1.036-1.755V14.256c0-0.794,0.345-1.381,1.036-1.758
		c0.71-0.377,1.391-0.354,2.039,0.062l16.067,10.042c0.628,0.357,0.941,0.922,0.941,1.695
		C238.908,25.074,238.594,25.638,237.967,25.993z"/>
</g>
<g>
	<path d="M217.426,185.849l-3.273-5.667c-2.385,1.619-4.412,3.7-6.021,6.091l5.627,3.248
		C214.779,188.114,216.015,186.871,217.426,185.849z"/>
	<path d="M212.123,192.313l-5.604-3.238c-1.224,2.533-2.018,5.312-2.227,8.26h6.477C210.946,195.56,211.415,193.872,212.123,192.313
		z"/>
	<path d="M210.823,200.573h-6.552c0.208,2.954,0.979,5.752,2.213,8.279l5.67-3.271C211.446,204.023,211.003,202.344,210.823,200.573
		z"/>
	<path d="M216.961,219.332c2.532,1.229,5.328,2.002,8.278,2.212v-6.56c-1.764-0.177-3.418-0.683-4.971-1.379L216.961,219.332z"/>
	<path d="M213.798,208.365l-5.692,3.285c1.62,2.382,3.682,4.432,6.066,6.045l3.282-5.68
		C216.038,211.006,214.82,209.765,213.798,208.365z"/>
	<path d="M242.886,200.573c-0.178,1.762-0.684,3.419-1.379,4.977l5.728,3.303c1.229-2.531,2.002-5.328,2.21-8.279H242.886z"/>
	<path d="M236.27,212.018l3.283,5.692c2.381-1.62,4.431-3.682,6.046-6.066l-5.683-3.279
		C238.908,209.779,237.668,210.997,236.27,212.018z"/>
	<path d="M228.478,214.993v6.554c2.954-0.209,5.746-0.98,8.276-2.215l-3.273-5.67C231.928,214.371,230.25,214.813,228.478,214.993z"
		/>
	<path d="M242.95,197.334h6.476c-0.211-2.95-0.974-5.736-2.207-8.266l-5.635,3.254C242.294,193.878,242.772,195.557,242.95,197.334z
		"/>
	<path d="M239.955,189.524l5.657-3.264c-1.618-2.385-3.658-4.459-6.043-6.078l-3.273,5.67
		C237.707,186.871,238.933,188.12,239.955,189.524z"/>
	<rect x="223.621" y="173.047" width="6.477" height="19.43"/>
</g>
<g id="_x32_28._Mobile">
	<g>
		<path d="M33.845,28.297c-1.104,0-2,0.896-2,2s0.896,2,2,2s2-0.896,2-2S34.949,28.297,33.845,28.297z M33.845,34.297
			c-1.104,0-2,0.896-2,2c0,1.104,0.896,2,2,2s2-0.896,2-2C35.845,35.192,34.949,34.297,33.845,34.297z M27.845,34.297
			c-1.104,0-2,0.896-2,2c0,1.104,0.896,2,2,2s2-0.896,2-2C29.845,35.192,28.949,34.297,27.845,34.297z M27.845,28.297
			c-1.104,0-2,0.896-2,2s0.896,2,2,2s2-0.896,2-2S28.949,28.297,27.845,28.297z M21.845,24.296h12c1.104,0,2-0.896,2-2v-5.999
			c0-1.104-0.896-2-2-2h-12c-1.104,0-2,0.896-2,2v5.999C19.845,23.4,20.742,24.296,21.845,24.296z M39.845,6.297h-20V4.296
			c0-1.104-0.896-2-2-2c-1.104,0-2,0.896-2,2v2.001c-2.21,0-4,1.79-4,4v32c0,2.209,1.79,4,4,4h24c2.209,0,4-1.791,4-4v-32
			C43.845,8.087,42.054,6.297,39.845,6.297z M39.845,42.297h-24v-32h24V42.297z M21.845,32.297c1.104,0,2-0.896,2-2s-0.896-2-2-2
			c-1.104,0-2,0.896-2,2C19.845,31.4,20.742,32.297,21.845,32.297z M21.845,38.297c1.104,0,2-0.896,2-2c0-1.104-0.896-2-2-2
			c-1.104,0-2,0.896-2,2C19.845,37.4,20.742,38.297,21.845,38.297z"/>
	</g>
</g>
</svg>
